<svg width="299" height="90" viewBox="0 0 299 90" fill="none" xmlns="http://www.w3.org/2000/svg">
<g clip-path="url(#clip0_4060_44)">
<path d="M110.193 71.9434L131.123 15.1582H140.533L161.3 71.9434H152.214L147.347 58.0716H124.146L119.279 71.9434H110.193ZM126.58 51.2574H144.913L135.746 25.3795L126.58 51.2574Z" fill="#053AE7"/>
<path d="M169.031 20.4696C167.409 20.4696 166.057 19.9829 164.975 19.0094C163.948 17.9819 163.434 16.711 163.434 15.1967C163.434 13.6824 163.948 12.4386 164.975 11.4651C166.057 10.4376 167.409 9.92383 169.031 9.92383C170.654 9.92383 171.979 10.4376 173.006 11.4651C174.088 12.4386 174.629 13.6824 174.629 15.1967C174.629 16.711 174.088 17.9819 173.006 19.0094C171.979 19.9829 170.654 20.4696 169.031 20.4696ZM164.732 71.9441V27.1919H173.331V71.9441H164.732Z" fill="#053AE7"/>
<path d="M182.139 71.9447V13.5371H190.738V48.3383L206.151 31.7083H216.453L199.336 49.9607L218.968 71.9447H208.098L190.738 51.3398V71.9447H182.139Z" fill="#053AE7"/>
<path d="M236.63 72.9177C232.682 72.9177 229.167 72.0524 226.084 70.3218C223.056 68.5371 220.676 66.0764 218.946 62.9397C217.215 59.803 216.35 56.1525 216.35 51.9883C216.35 47.7699 217.188 44.0654 218.865 40.8746C220.595 37.6838 222.975 35.1961 226.003 33.4114C229.086 31.6267 232.655 30.7344 236.711 30.7344C240.659 30.7344 244.093 31.6267 247.014 33.4114C249.934 35.142 252.206 37.4675 253.828 40.3879C255.45 43.3082 256.262 46.5261 256.262 50.0413C256.262 50.5822 256.235 51.1771 256.181 51.826C256.181 52.4209 256.153 53.0969 256.099 53.8541H224.786C225.057 57.7479 226.328 60.7224 228.599 62.7775C230.925 64.7785 233.602 65.779 236.63 65.779C239.064 65.779 241.092 65.2382 242.714 64.1565C244.391 63.0208 245.635 61.5066 246.446 59.6137H255.045C253.963 63.3994 251.8 66.5631 248.555 69.105C245.364 71.6468 241.389 72.9177 236.63 72.9177ZM236.63 37.792C233.764 37.792 231.222 38.6573 229.005 40.3879C226.787 42.0644 225.435 44.6062 224.949 48.0133H247.663C247.5 44.8766 246.392 42.3889 244.337 40.5501C242.282 38.7113 239.713 37.792 236.63 37.792Z" fill="#053AE7"/>
<path d="M260.451 71.9442V31.7078H268.076L268.725 38.7654C269.969 36.2777 271.781 34.3308 274.16 32.9247C276.594 31.4645 279.379 30.7344 282.516 30.7344C287.383 30.7344 291.196 32.2486 293.954 35.2772C296.766 38.3057 298.172 42.8215 298.172 48.8245V71.9442H289.655V49.7169C289.655 41.9292 286.464 38.0353 280.082 38.0353C276.891 38.0353 274.241 39.171 272.132 41.4424C270.077 43.7138 269.05 46.9587 269.05 51.1771V71.9442H260.451Z" fill="#053AE7"/>
<path fill-rule="evenodd" clip-rule="evenodd" d="M71.4135 0.396484H80.4423V9.42635H71.4135V0.396484ZM47.5749 0.396485H56.6037V9.42635H47.5749V0.396485ZM71.4135 27.1921H80.4423V36.2219H71.4135V27.1921ZM71.4135 54.065H80.4423V63.0948H71.4135V54.065ZM23.7363 54.065H32.7652V63.0948H23.7363V54.065Z" fill="#053AE7"/>
<path fill-rule="evenodd" clip-rule="evenodd" d="M8.9494 15.39C8.9494 11.833 11.833 8.9494 15.39 8.9494H33.0248V0H15.39C6.89035 0 0 6.89037 0 15.39V76.4661C0 83.8788 6.00828 89.8883 13.4206 89.8902H13.4241L80.3853 90V84.3369L28.7761 24.6257L8.9494 46.8948V15.39ZM8.9494 76.4661V60.3533L28.6764 38.1962L65.6951 81.0265L13.4314 80.9408H13.4241C10.9528 80.9408 8.9494 78.9374 8.9494 76.4661Z" fill="#053AE7"/>
</g>
<defs>
<clipPath id="clip0_4060_44">
<rect width="299" height="90" fill="white"/>
</clipPath>
</defs>
</svg>
