<svg width="305" height="90" viewBox="0 0 305 90" fill="none" xmlns="http://www.w3.org/2000/svg">
<g clip-path="url(#clip0_4060_17)">
<path d="M295.695 14.0042V8.70219H290.682V5.302H295.695V0H299.384V5.302H304.398V8.70219H299.384V14.0042H295.695Z" fill="#053AE7"/>
<path d="M75.5977 31.9473H86.2855V51.298L84.9355 58.3857C84.9355 53.2856 85.423 48.7479 86.398 44.7728C87.3731 40.7976 88.8731 37.685 90.8982 35.4349C92.9983 33.1098 95.6234 31.9473 98.7735 31.9473H109.124V41.6226H99.8985C96.7484 41.6226 94.1608 42.4102 92.1357 43.9852C90.1107 45.5603 88.6106 47.9604 87.6356 51.1855C86.7356 54.3356 86.2855 58.3857 86.2855 63.3359V88.1993H75.5977V31.9473Z" fill="#053AE7"/>
<path d="M129.017 90.0006C125.567 90.0006 122.38 89.288 119.454 87.863C116.604 86.4379 114.317 84.4129 112.592 81.7878C110.867 79.0877 110.004 75.9751 110.004 72.4499C110.004 67.7998 111.317 64.1621 113.942 61.5371C116.642 58.837 119.979 56.9619 123.955 55.9119C128.005 54.8618 132.505 54.1868 137.455 53.8868C141.655 53.7368 144.505 52.9868 146.005 51.6367C147.505 50.2117 147.993 48.4491 147.468 46.349C147.018 44.3239 145.78 42.7489 143.755 41.6238C141.805 40.4238 139.105 39.8238 135.655 39.8238C131.38 39.8238 128.005 40.7613 125.53 42.6364C123.13 44.4364 121.929 47.1365 121.929 50.7367L111.467 49.6116C111.467 45.9365 112.479 42.6364 114.504 39.7113C116.529 36.7112 119.379 34.3861 123.055 32.736C126.805 31.011 131.005 30.1484 135.655 30.1484C142.705 30.1484 148.255 31.761 152.306 34.9861C156.431 38.2112 158.493 43.6114 158.493 51.1867V88.2005H147.805V72.4499L148.93 67.9498C148.93 71.9999 148.143 75.7125 146.568 79.0877C145.068 82.4628 142.818 85.1254 139.818 87.0755C136.818 89.0255 133.217 90.0006 129.017 90.0006ZM131.267 80.3252C134.267 80.3252 137.005 79.6127 139.48 78.1876C142.03 76.7626 144.055 74.625 145.555 71.7749C147.055 68.8498 147.805 65.2122 147.805 60.862V52.7617L149.268 51.2992C149.268 54.2993 148.63 56.6244 147.355 58.2744C146.155 59.8495 144.618 60.937 142.743 61.5371C140.868 62.1371 138.618 62.5871 135.992 62.8871H135.317C131.042 63.1121 127.592 63.8996 124.967 65.2497C122.342 66.5247 121.029 68.8123 121.029 72.1124C121.029 73.7625 121.404 75.1875 122.154 76.3876C122.98 77.5876 124.18 78.5626 125.755 79.3127C127.33 79.9877 129.167 80.3252 131.267 80.3252Z" fill="#053AE7"/>
<path d="M165.297 31.9473H175.985V51.298L174.635 58.3857C174.635 53.2856 175.122 48.7479 176.097 44.7728C177.072 40.7976 178.572 37.685 180.598 35.4349C182.698 33.1098 185.323 31.9473 188.473 31.9473H198.823V41.6226H189.598C186.448 41.6226 183.86 42.4102 181.835 43.9852C179.81 45.5603 178.31 47.9604 177.335 51.1855C176.435 54.3356 175.985 58.3857 175.985 63.3359V88.1993H165.297V31.9473Z" fill="#053AE7"/>
<path d="M218.715 90.0006C215.264 90.0006 212.077 89.288 209.152 87.863C206.302 86.4379 204.014 84.4129 202.289 81.7878C200.564 79.0877 199.701 75.9751 199.701 72.4499C199.701 67.7998 201.014 64.1621 203.639 61.5371C206.339 58.837 209.677 56.9619 213.652 55.9119C217.702 54.8618 222.202 54.1868 227.152 53.8868C231.352 53.7368 234.203 52.9868 235.703 51.6367C237.203 50.2117 237.69 48.4491 237.165 46.349C236.715 44.3239 235.478 42.7489 233.453 41.6238C231.502 40.4238 228.802 39.8238 225.352 39.8238C221.077 39.8238 217.702 40.7613 215.227 42.6364C212.827 44.4364 211.627 47.1365 211.627 50.7367L201.164 49.6116C201.164 45.9365 202.176 42.6364 204.202 39.7113C206.227 36.7112 209.077 34.3861 212.752 32.736C216.502 31.011 220.702 30.1484 225.352 30.1484C232.403 30.1484 237.953 31.761 242.003 34.9861C246.128 38.2112 248.191 43.6114 248.191 51.1867V88.2005H237.503V72.4499L238.628 67.9498C238.628 71.9999 237.84 75.7125 236.265 79.0877C234.765 82.4628 232.515 85.1254 229.515 87.0755C226.515 89.0255 222.915 90.0006 218.715 90.0006ZM220.965 80.3252C223.965 80.3252 226.702 79.6127 229.177 78.1876C231.728 76.7626 233.753 74.625 235.253 71.7749C236.753 68.8498 237.503 65.2122 237.503 60.862V52.7617L238.965 51.2992C238.965 54.2993 238.328 56.6244 237.053 58.2744C235.853 59.8495 234.315 60.937 232.44 61.5371C230.565 62.1371 228.315 62.5871 225.69 62.8871H225.015C220.74 63.1121 217.289 63.8996 214.664 65.2497C212.039 66.5247 210.727 68.8123 210.727 72.1124C210.727 73.7625 211.102 75.1875 211.852 76.3876C212.677 77.5876 213.877 78.5626 215.452 79.3127C217.027 79.9877 218.865 80.3252 220.965 80.3252Z" fill="#053AE7"/>
<path d="M279.975 88.1999C274.499 88.1999 270.299 86.8123 267.374 84.0373C264.524 81.1871 263.099 77.062 263.099 71.6618V13.9473H273.787V71.7743C273.787 74.0244 274.349 75.7119 275.474 76.837C276.6 77.962 278.287 78.5246 280.537 78.5246H290.662V88.1999H279.975ZM250.949 31.9479H290.662V41.6232H250.949V31.9479Z" fill="#053AE7"/>
<path d="M26.776 9.44531H34.82H42.864L69.64 88.1981H58.5021L32.5137 11.9204H37.2388L11.1379 88.1981H0L26.776 9.44531Z" fill="#053AE7"/>
<path d="M54.4199 65.0371V53.6955L44.6655 47.293L34.9111 53.6955L25.1567 47.293L15.4023 53.6955V65.0371L25.1567 58.6345L34.9111 65.0371L44.6655 58.6345L54.4199 65.0371Z" fill="#053AE7"/>
</g>
<defs>
<clipPath id="clip0_4060_17">
<rect width="305" height="90" fill="white"/>
</clipPath>
</defs>
</svg>
