<svg width="376" height="90" viewBox="0 0 376 90" fill="none" xmlns="http://www.w3.org/2000/svg">
<g clip-path="url(#clip0_4060_256)">
<path d="M105.449 78.7511V13.9512H131.144C135.524 13.9512 139.109 14.8362 141.899 16.6062C144.719 18.3462 146.804 20.5812 148.154 23.3112C149.534 26.0412 150.224 28.8612 150.224 31.7712C150.224 35.3411 149.369 38.3711 147.659 40.8611C145.979 43.3511 143.684 45.0311 140.774 45.9011V43.6511C144.854 44.5811 147.944 46.5161 150.044 49.4561C152.174 52.3961 153.239 55.7411 153.239 59.4911C153.239 63.3311 152.504 66.6911 151.034 69.5711C149.564 72.4511 147.374 74.7011 144.464 76.3211C141.584 77.9411 138.014 78.7511 133.754 78.7511H105.449ZM116.429 68.5361H132.404C134.294 68.5361 135.989 68.1611 137.489 67.4111C138.989 66.6311 140.159 65.5511 140.999 64.1711C141.869 62.7611 142.304 61.0961 142.304 59.1761C142.304 57.4361 141.929 55.8761 141.179 54.4961C140.429 53.1161 139.334 52.0211 137.894 51.2111C136.454 50.3711 134.729 49.9511 132.719 49.9511H116.429V68.5361ZM116.429 39.8261H131.009C132.569 39.8261 133.964 39.5261 135.194 38.9261C136.424 38.3261 137.399 37.4411 138.119 36.2711C138.839 35.1012 139.199 33.6612 139.199 31.9512C139.199 29.7012 138.479 27.8262 137.039 26.3262C135.599 24.8262 133.589 24.0762 131.009 24.0762H116.429V39.8261Z" fill="#053AE7"/>
<path d="M162.227 78.7501V30.1502H171.812V41.9851L170.642 40.4551C171.242 38.8351 172.037 37.3651 173.027 36.0451C174.047 34.6951 175.262 33.5852 176.672 32.7152C177.872 31.9052 179.192 31.2752 180.632 30.8252C182.102 30.3452 183.602 30.0602 185.132 29.9702C186.662 29.8502 188.147 29.9102 189.587 30.1502V40.2751C188.147 39.8551 186.482 39.7201 184.592 39.8701C182.732 40.0201 181.052 40.5451 179.552 41.4451C178.052 42.2551 176.822 43.2901 175.862 44.5501C174.932 45.8101 174.242 47.2501 173.792 48.8701C173.342 50.4601 173.117 52.1851 173.117 54.0451V78.7501H162.227Z" fill="#053AE7"/>
<path d="M199.074 22.7712V12.8262H209.919V22.7712H199.074ZM199.074 78.7511V30.1512H209.919V78.7511H199.074Z" fill="#053AE7"/>
<path d="M242.164 80.1007C236.164 80.1007 231.289 78.7507 227.539 76.0507C223.789 73.3507 221.509 69.5557 220.699 64.6657L231.769 62.9557C232.339 65.3557 233.599 67.2457 235.549 68.6257C237.499 70.0057 239.959 70.6957 242.929 70.6957C245.539 70.6957 247.549 70.1857 248.959 69.1657C250.399 68.1157 251.119 66.6907 251.119 64.8907C251.119 63.7807 250.849 62.8957 250.309 62.2357C249.799 61.5457 248.659 60.8857 246.889 60.2557C245.119 59.6257 242.404 58.8307 238.744 57.8707C234.664 56.7907 231.424 55.6357 229.024 54.4057C226.624 53.1457 224.899 51.6607 223.849 49.9507C222.799 48.2407 222.274 46.1707 222.274 43.7407C222.274 40.7107 223.069 38.0707 224.659 35.8208C226.249 33.5708 228.469 31.8458 231.319 30.6458C234.169 29.4158 237.529 28.8008 241.399 28.8008C245.179 28.8008 248.524 29.3858 251.434 30.5558C254.374 31.7258 256.744 33.3908 258.544 35.5507C260.344 37.7107 261.454 40.2457 261.874 43.1557L250.804 45.1357C250.534 43.0657 249.589 41.4307 247.969 40.2307C246.379 39.0307 244.249 38.3557 241.579 38.2057C239.029 38.0557 236.974 38.4457 235.414 39.3757C233.854 40.2757 233.074 41.5507 233.074 43.2007C233.074 44.1307 233.389 44.9257 234.019 45.5857C234.649 46.2457 235.909 46.9057 237.799 47.5657C239.719 48.2257 242.569 49.0357 246.349 49.9957C250.219 50.9857 253.309 52.1257 255.619 53.4157C257.959 54.6757 259.639 56.1907 260.659 57.9607C261.709 59.7307 262.234 61.8757 262.234 64.3957C262.234 69.2857 260.449 73.1257 256.879 75.9157C253.339 78.7057 248.434 80.1007 242.164 80.1007Z" fill="#053AE7"/>
<path d="M300.576 78.7503C297.366 79.3503 294.216 79.6053 291.126 79.5153C288.066 79.4553 285.321 78.9003 282.891 77.8503C280.461 76.7703 278.616 75.0753 277.356 72.7653C276.246 70.6653 275.661 68.5203 275.601 66.3303C275.541 64.1403 275.511 61.6653 275.511 58.9053V16.6504H286.311V58.2753C286.311 60.2253 286.326 61.9353 286.356 63.4053C286.416 64.8753 286.731 66.0753 287.301 67.0053C288.381 68.8053 290.106 69.8103 292.476 70.0203C294.846 70.2303 297.546 70.1103 300.576 69.6603V78.7503ZM266.691 38.6553V30.1504H300.576V38.6553H266.691Z" fill="#053AE7"/>
<path d="M330.03 80.1007C325.17 80.1007 320.925 79.0057 317.295 76.8157C313.665 74.6257 310.845 71.6107 308.835 67.7707C306.855 63.9007 305.865 59.4607 305.865 54.4507C305.865 49.3507 306.885 44.8807 308.925 41.0407C310.965 37.2007 313.8 34.2008 317.43 32.0408C321.06 29.8808 325.26 28.8008 330.03 28.8008C334.92 28.8008 339.18 29.8958 342.81 32.0858C346.44 34.2758 349.26 37.3057 351.27 41.1757C353.28 45.0157 354.285 49.4407 354.285 54.4507C354.285 59.4907 353.265 63.9457 351.225 67.8157C349.215 71.6557 346.395 74.6707 342.765 76.8607C339.135 79.0207 334.89 80.1007 330.03 80.1007ZM330.03 69.9307C334.35 69.9307 337.56 68.4907 339.66 65.6107C341.76 62.7307 342.81 59.0107 342.81 54.4507C342.81 49.7407 341.745 45.9907 339.615 43.2007C337.485 40.3807 334.29 38.9707 330.03 38.9707C327.12 38.9707 324.72 39.6307 322.83 40.9507C320.97 42.2407 319.59 44.0557 318.69 46.3957C317.79 48.7057 317.34 51.3907 317.34 54.4507C317.34 59.1607 318.405 62.9257 320.535 65.7457C322.695 68.5357 325.86 69.9307 330.03 69.9307Z" fill="#053AE7"/>
<path d="M365.1 78.7515V12.6016H375.945V78.7515H365.1Z" fill="#053AE7"/>
<path fill-rule="evenodd" clip-rule="evenodd" d="M66.4283 0H0V42.8571H66.4283C78.2628 42.857 87.8568 33.2631 87.8568 21.4285C87.8568 9.59395 78.2628 0.00011545 66.4283 0Z" fill="#053AE7"/>
<path fill-rule="evenodd" clip-rule="evenodd" d="M66.4285 47.1426H0V89.9997H66.3649C66.386 89.9997 66.4071 89.9997 66.4282 89.9997C78.2629 89.9997 87.8567 80.4059 87.8567 68.5712C87.8567 56.7366 78.263 47.1427 66.4285 47.1426Z" fill="#053AE7"/>
</g>
<defs>
<clipPath id="clip0_4060_256">
<rect width="376" height="90" fill="white"/>
</clipPath>
</defs>
</svg>
