<svg width="247" height="90" viewBox="0 0 247 90" fill="none" xmlns="http://www.w3.org/2000/svg">
<g clip-path="url(#clip0_4060_26)">
<path d="M141.463 32.7051H118.123C120.186 51.0292 120.199 69.5262 118.163 87.8534H141.519C139.65 69.519 139.632 51.0432 141.463 32.7051Z" fill="#053AE7"/>
<path d="M246.695 56.2079C246.054 49.315 243.57 43.1795 238.222 38.4681C228.587 29.9896 210.231 29.3533 199.874 37.2006C192.188 43.023 190.062 51.2794 189.83 60.2427C190.027 69.3322 192.077 77.5381 199.642 83.3604C204.187 86.8599 209.504 88.3445 215.119 88.7435C224.148 89.3848 232.632 87.8749 239.328 81.1941C246.276 74.2608 247.549 65.4641 246.695 56.2079ZM218.528 83.7745H218.498C218.397 83.7816 218.295 83.7816 218.195 83.7745C217.701 83.7024 217.232 83.5138 216.826 83.2241C216.46 83.0046 216.137 82.7206 215.872 82.3858C212.887 79.1085 210.756 70.4735 210.756 60.3386C210.756 50.2038 212.902 41.5081 215.902 38.256C216.09 38.0395 216.3 37.8431 216.528 37.6703C217.038 37.2144 217.677 36.9285 218.356 36.8522H218.498H218.528C222.825 36.8522 226.304 47.3557 226.304 60.3083C226.304 73.2609 222.825 83.7745 218.528 83.7745Z" fill="#053AE7"/>
<path d="M113.464 56.3395C112.529 48.3407 109.666 41.3619 102.733 36.6455C97.4811 33.0753 91.5476 31.8532 85.2859 31.7472C71.1466 31.52 61.0471 39.0693 57.7547 52.4512C56.9215 55.8446 57.1538 56.3546 60.3452 58.117C64.9455 49.891 73.5806 49.3506 81.0492 51.7341C87.1846 53.6985 91.7698 58.213 91.6537 61.2176C89.4419 59.9147 87.1089 58.1221 84.4426 57.0566C79.807 55.1932 74.9037 55.3396 70.0357 56.2233C61.6834 57.7383 56.1893 63.601 56.0782 71.0747C55.9267 81.4974 60.118 87.0723 69.5812 89.0316C71.2981 89.3851 73.0302 89.683 74.7572 90.0011H80.8169C84.9527 89.178 89.0682 88.3196 91.886 83.9414V87.7692H115.024C114.519 77.6696 114.064 67.7519 113.59 57.8393C113.544 57.3494 113.524 56.8394 113.464 56.3395ZM88.8763 82.7144C88.7579 83.6362 88.2957 84.4792 87.5822 85.0747C86.8686 85.6703 85.9565 85.9743 85.0284 85.926H84.7709H84.5638C81.0694 85.926 78.2415 80.5783 78.2415 73.9783C78.2415 67.5196 80.9533 62.2578 84.3467 62.0407H84.4275C86.5837 61.8639 87.9623 63.1163 88.7501 64.8938C88.8309 65.0806 88.9167 65.2725 88.9975 65.4694C90.3033 68.1178 90.9528 71.0413 90.8912 73.9934C90.8659 77.4273 90.0933 80.5329 88.8763 82.7144Z" fill="#053AE7"/>
<path d="M192.003 33.1516C188.302 29.2026 179.848 28.829 175.975 33.0758C173.38 35.9138 171.547 39.5294 169.794 43.0137C168.481 45.6143 167.845 48.5684 166.906 51.3458L166.431 51.2499C166.679 47.3767 166.936 43.5086 167.184 39.6102C167.441 36.0222 168.138 32.4795 169.259 29.0613C170.774 24.2791 171.658 15.3613 162.548 5.72634C156.938 -0.202071 138.612 -1.5251 129.952 1.74714C118.842 5.97378 117.676 16.2904 117.676 16.2904C117.676 16.2904 117.676 16.4621 117.706 16.7601C117.736 17.058 117.676 17.265 117.676 17.5125C117.683 19.2759 118.088 21.0149 118.862 22.5995C119.636 24.184 120.758 25.573 122.145 26.6626C124.087 28.3627 126.568 29.3199 129.149 29.3642C129.381 29.3642 129.618 29.3642 129.851 29.3642C131.507 29.3694 133.147 29.0414 134.673 28.3997C138.148 27.2989 142.248 24.976 142.248 20.1383C142.248 11.7053 152.398 13.7151 152.398 18.7194C152.398 22.2542 151.327 24.2741 150.706 25.1325C150.398 25.5668 150.09 26.0062 149.823 26.4657C148.381 28.831 146.545 30.9319 144.394 32.6769C146.365 50.9995 146.375 69.4802 144.424 87.805H167.487C167.133 79.7254 166.911 71.8529 166.391 63.9752C166.113 59.8041 167.628 56.4259 170.037 53.295C171.779 51.0378 174.076 49.7097 177.02 50.0329C180.242 50.3864 183.449 50.9065 186.716 51.361C186.797 51.264 186.868 51.1591 186.928 51.0479C188.867 46.5031 190.7 41.8876 192.786 37.4135C193.604 35.6158 193.22 34.4443 192.003 33.1516Z" fill="#053AE7"/>
<path d="M24.2388 29.5195C24.2792 27.6006 24.158 24.8535 27.2687 24.9242C30.2228 24.9899 30.1066 27.6309 30.344 29.6054C30.8489 33.9178 31.157 38.2556 31.5408 42.558H53.6486C53.4264 40.23 53.3001 38.0738 53.0022 35.9428C51.8408 27.5249 46.8112 22.0408 38.4337 20.8844C33.6906 20.2406 28.8991 20.0277 24.1176 20.2482V20.1876C17.727 20.1835 11.5964 22.7177 7.07373 27.2327C2.55109 31.7478 0.00669329 37.8742 0 44.2648V64.7466C0.00151678 70.1738 1.83388 75.4417 5.20069 79.6983C8.5675 83.955 13.2719 86.9513 18.5528 88.2027V88.2633C18.9871 88.339 19.4213 88.4047 19.8556 88.4703C20.6912 88.6189 21.534 88.7234 22.3805 88.7834C28.3045 89.3842 34.2841 89.1291 40.1354 88.0259C49.225 86.3393 54.2141 77.9618 53.1587 66.7362H31.4448C31.3792 67.6855 31.3489 68.5137 31.263 69.3318C30.8338 73.4221 30.556 77.5427 29.8491 81.5825C29.6622 82.648 28.2988 84.0164 27.2232 84.3043C25.4558 84.779 24.7842 83.1226 24.6125 81.638C24.461 80.3554 24.2893 79.0727 24.1378 77.785V36.3165C24.1614 34.0542 24.195 31.7885 24.2388 29.5195Z" fill="#053AE7"/>
</g>
<defs>
<clipPath id="clip0_4060_26">
<rect width="247" height="90" fill="white"/>
</clipPath>
</defs>
</svg>
