<svg width="307" height="90" viewBox="0 0 307 90" fill="none" xmlns="http://www.w3.org/2000/svg">
<g clip-path="url(#clip0_4060_247)">
<path d="M113.689 70.523C109.958 70.523 106.943 70.2411 104.644 69.6771C102.345 69.1132 100.675 68.2673 99.634 67.1394C98.5929 66.055 98.0723 64.7319 98.0723 63.1702C98.0723 61.2182 98.8315 59.6348 100.35 58.4202C101.911 57.1622 104.232 56.338 107.312 55.9476V54.9715C104.969 54.9715 103.191 54.6896 101.976 54.1256C100.762 53.5617 100.154 52.6507 100.154 51.3927C100.154 50.2215 100.74 49.1804 101.911 48.2694C103.126 47.3585 105.1 46.6644 107.832 46.1872V45.1461C105.23 44.8858 103.191 43.9749 101.716 42.4132C100.284 40.8516 99.5689 38.8344 99.5689 36.3618C99.5689 34.1495 100.154 32.2191 101.326 30.5707C102.54 28.8789 104.275 27.5558 106.531 26.6015C108.83 25.6471 111.606 25.1699 114.86 25.1699H131.778V31.7419L120.846 30.1803V31.2864C123.709 31.7636 125.77 32.5878 127.028 33.759C128.329 34.8869 128.98 36.3618 128.98 38.1837C128.98 39.9189 128.416 41.4806 127.288 42.8687C126.204 44.2135 124.62 45.2763 122.538 46.0571C120.456 46.7945 117.896 47.1633 114.86 47.1633C114.166 47.1633 113.472 47.1416 112.778 47.0982C112.084 47.0114 111.151 46.8813 109.98 46.7078C108.939 47.3151 108.136 47.8573 107.572 48.3345C107.052 48.8117 106.791 49.2672 106.791 49.701C106.791 50.0046 106.987 50.2649 107.377 50.4818C107.767 50.6553 108.266 50.7854 108.874 50.8722C109.481 50.959 110.11 51.0023 110.761 51.0023H120.261C121.085 51.0023 122.169 51.0674 123.514 51.1975C124.902 51.3277 126.269 51.6747 127.613 52.2386C129.002 52.7592 130.151 53.6268 131.062 54.8414C132.016 56.0126 132.494 57.7044 132.494 59.9168C132.494 62.346 131.8 64.3415 130.411 65.9031C129.023 67.5082 126.941 68.6794 124.165 69.4169C121.389 70.1543 117.896 70.523 113.689 70.523ZM114.079 63.6908C116.942 63.6908 119.176 63.539 120.781 63.2353C122.43 62.9316 123.579 62.4762 124.23 61.8689C124.881 61.2615 125.206 60.4807 125.206 59.5264C125.206 58.6588 124.989 57.9864 124.555 57.5092C124.121 56.9887 123.557 56.62 122.863 56.4031C122.213 56.1862 121.54 56.056 120.846 56.0126C120.152 55.9693 119.567 55.9476 119.089 55.9476H110.826C108.874 56.3814 107.507 56.9887 106.726 57.7695C105.945 58.507 105.555 59.3529 105.555 60.3072C105.555 61.2615 105.902 61.9773 106.596 62.4545C107.29 62.9317 108.266 63.257 109.524 63.4305C110.826 63.604 112.344 63.6908 114.079 63.6908ZM114.6 42.5434C116.725 42.5434 118.352 42.0228 119.48 40.9817C120.651 39.8972 121.237 38.5091 121.237 36.8173C121.237 34.9954 120.651 33.4988 119.48 32.3275C118.309 31.1563 116.66 30.5707 114.535 30.5707C112.366 30.5707 110.674 31.1563 109.459 32.3275C108.288 33.4554 107.702 34.9086 107.702 36.6872C107.702 37.815 107.963 38.8344 108.483 39.7454C109.047 40.613 109.828 41.3071 110.826 41.8276C111.867 42.3048 113.125 42.5434 114.6 42.5434Z" fill="#053AE7"/>
<path d="M149.314 60.2423C146.494 60.2423 144.022 59.8519 141.896 59.0711C139.77 58.2469 137.992 57.0756 136.56 55.5574C135.129 54.0391 134.044 52.2172 133.307 50.0916C132.57 47.966 132.201 45.6018 132.201 42.999C132.201 40.3963 132.548 37.967 133.242 35.7113C133.979 33.4556 135.042 31.5035 136.43 29.8551C137.818 28.1633 139.532 26.8619 141.571 25.951C143.653 24.9966 146.017 24.5195 148.663 24.5195C151.223 24.5195 153.478 24.9532 155.43 25.8208C157.382 26.645 159.009 27.8814 160.311 29.5298C161.612 31.1782 162.545 33.1953 163.109 35.5812C163.716 37.9237 163.911 40.5915 163.694 43.5847L137.471 43.91V39.0949L158.359 38.8346L156.081 41.5675C156.298 39.225 156.103 37.2947 155.495 35.7764C154.932 34.2147 154.064 33.0435 152.893 32.2627C151.721 31.4818 150.333 31.0914 148.728 31.0914C146.906 31.0914 145.345 31.5686 144.043 32.5229C142.785 33.4339 141.809 34.757 141.115 36.4921C140.465 38.2273 140.139 40.3095 140.139 42.7388C140.139 46.5562 140.942 49.3975 142.547 51.2628C144.152 53.1281 146.429 54.0608 149.379 54.0608C150.68 54.0608 151.765 53.8873 152.632 53.5402C153.543 53.1498 154.281 52.6726 154.845 52.1087C155.452 51.5014 155.908 50.829 156.211 50.0916C156.558 49.3541 156.775 48.595 156.862 47.8142L164.215 48.9854C163.998 50.5904 163.542 52.087 162.848 53.4752C162.154 54.8199 161.2 56.0128 159.985 57.0539C158.771 58.0517 157.274 58.8325 155.495 59.3964C153.76 59.9604 151.7 60.2423 149.314 60.2423Z" fill="#053AE7"/>
<path d="M166.922 59.3964V39.6805V25.4304H173.949L173.624 37.4031H174.6C175.077 34.2798 175.836 31.7855 176.877 29.9202C177.962 28.0115 179.306 26.645 180.912 25.8208C182.517 24.9532 184.382 24.5195 186.507 24.5195C188.46 24.5195 190.108 24.8665 191.453 25.5606C192.797 26.2112 193.904 27.1222 194.771 28.2935C195.639 29.4213 196.311 30.701 196.788 32.1325C197.309 33.564 197.656 35.0606 197.829 36.6223C198.003 38.1839 198.09 39.7022 198.09 41.1771V59.3964H189.891V42.1531C189.891 41.2422 189.826 40.2011 189.696 39.0298C189.609 37.8152 189.37 36.644 188.98 35.5161C188.59 34.3883 187.982 33.4556 187.158 32.7181C186.334 31.9807 185.163 31.612 183.644 31.612C181.822 31.612 180.283 32.1976 179.025 33.3688C177.81 34.4967 176.856 36.1234 176.161 38.249C175.511 40.3312 175.185 42.7821 175.185 45.6018V59.3964H166.922Z" fill="#053AE7"/>
<path d="M217.791 60.2423C214.971 60.2423 212.499 59.8519 210.373 59.0711C208.247 58.2469 206.469 57.0756 205.037 55.5574C203.606 54.0391 202.521 52.2172 201.784 50.0916C201.046 47.966 200.678 45.6018 200.678 42.999C200.678 40.3963 201.025 37.967 201.719 35.7113C202.456 33.4556 203.519 31.5035 204.907 29.8551C206.295 28.1633 208.009 26.8619 210.048 25.951C212.13 24.9966 214.494 24.5195 217.14 24.5195C219.7 24.5195 221.955 24.9532 223.907 25.8208C225.859 26.645 227.486 27.8814 228.788 29.5298C230.089 31.1782 231.022 33.1953 231.586 35.5812C232.193 37.9237 232.388 40.5915 232.171 43.5847L205.948 43.91V39.0949L226.835 38.8346L224.558 41.5675C224.775 39.225 224.58 37.2947 223.972 35.7764C223.409 34.2147 222.541 33.0435 221.37 32.2627C220.198 31.4818 218.81 31.0914 217.205 31.0914C215.383 31.0914 213.822 31.5686 212.52 32.5229C211.262 33.4339 210.286 34.757 209.592 36.4921C208.942 38.2273 208.616 40.3095 208.616 42.7388C208.616 46.5562 209.419 49.3975 211.024 51.2628C212.629 53.1281 214.906 54.0608 217.856 54.0608C219.157 54.0608 220.242 53.8873 221.109 53.5402C222.02 53.1498 222.758 52.6726 223.322 52.1087C223.929 51.5014 224.385 50.829 224.688 50.0916C225.035 49.3541 225.252 48.595 225.339 47.8142L232.692 48.9854C232.475 50.5904 232.019 52.087 231.325 53.4752C230.631 54.8199 229.677 56.0128 228.462 57.0539C227.248 58.0517 225.751 58.8325 223.972 59.3964C222.237 59.9604 220.177 60.2423 217.791 60.2423Z" fill="#053AE7"/>
<path d="M242.708 59.3957L231.191 25.4297H240.17L247.978 52.6936H248.759L256.633 25.4297H265.222L253.704 59.3957H242.708Z" fill="#053AE7"/>
<path d="M273.511 60.2423C271.646 60.2423 269.954 59.917 268.436 59.2663C266.961 58.5722 265.79 57.5311 264.922 56.143C264.055 54.7115 263.621 52.9546 263.621 50.8724C263.621 48.6167 264.098 46.8164 265.052 45.4717C266.007 44.1269 267.243 43.0858 268.761 42.3484C270.323 41.5675 271.993 41.0036 273.772 40.6566C275.55 40.2661 277.285 39.9408 278.977 39.6805C280.799 39.4203 282.209 39.1817 283.207 38.9648C284.204 38.7045 284.898 38.3575 285.289 37.9237C285.723 37.4899 285.939 36.8826 285.939 36.1017C285.939 35.104 285.701 34.2364 285.224 33.499C284.79 32.7181 284.118 32.1108 283.207 31.677C282.339 31.2432 281.255 31.0264 279.953 31.0264C278.739 31.0264 277.567 31.2432 276.439 31.677C275.312 32.1108 274.336 32.8049 273.511 33.7592C272.73 34.7136 272.232 35.9716 272.015 37.5333L264.662 35.8415C264.966 33.846 265.573 32.1542 266.484 30.7661C267.395 29.3346 268.523 28.1633 269.867 27.2524C271.256 26.298 272.796 25.6039 274.487 25.1701C276.223 24.7364 278.066 24.5195 280.018 24.5195C282.534 24.5195 284.681 24.8665 286.46 25.5606C288.282 26.2112 289.735 27.1873 290.82 28.4887C291.948 29.79 292.75 31.3517 293.227 33.1736C293.748 34.9522 294.008 36.9693 294.008 39.225V45.4717C294.051 46.9899 294.095 48.5299 294.138 50.0916C294.182 51.6532 294.225 53.2149 294.268 54.7765C294.355 56.3382 294.442 57.8782 294.529 59.3964H287.241C287.154 58.0083 287.067 56.5551 286.981 55.0368C286.937 53.5185 286.894 51.9569 286.85 50.3518H286.005C285.527 52.1738 284.725 53.8439 283.597 55.3622C282.469 56.8371 281.059 58.03 279.368 58.941C277.676 59.8085 275.724 60.2423 273.511 60.2423ZM276.635 54.1258C277.546 54.1258 278.478 53.9523 279.433 53.6053C280.387 53.2583 281.298 52.7377 282.165 52.0436C283.076 51.3496 283.857 50.482 284.508 49.4409C285.202 48.3564 285.723 47.0984 286.07 45.6669L286.005 41.3723L287.631 41.4374C286.981 42.0881 286.135 42.5869 285.094 42.934C284.096 43.2376 282.99 43.4979 281.775 43.7148C280.604 43.8883 279.411 44.0835 278.196 44.3004C277.025 44.5173 275.941 44.821 274.943 45.2114C273.945 45.6018 273.143 46.144 272.535 46.8381C271.971 47.5322 271.689 48.4648 271.689 49.6361C271.689 51.0242 272.145 52.1304 273.056 52.9546C273.967 53.7354 275.16 54.1258 276.635 54.1258Z" fill="#053AE7"/>
<path d="M301.268 60.1772C299.489 60.1772 298.145 59.7867 297.234 59.0059C296.323 58.2251 295.867 57.0322 295.867 55.4271C295.867 53.7353 296.323 52.499 297.234 51.7182C298.145 50.9374 299.489 50.5469 301.268 50.5469C303.09 50.5469 304.456 50.9374 305.367 51.7182C306.322 52.499 306.799 53.7353 306.799 55.4271C306.799 58.5938 304.955 60.1772 301.268 60.1772Z" fill="#053AE7"/>
<path fill-rule="evenodd" clip-rule="evenodd" d="M42.9953 0.381894C19.2973 3.59173 0.0478189 26.1709 8.8922e-05 50.8104C-0.0476411 75.4498 19.1255 92.8279 42.8187 89.6181C66.5119 86.4083 85.7757 63.829 85.8139 39.1896C85.8521 14.5502 66.6885 -2.82794 42.9953 0.381894ZM12.8568 49.0489C12.8234 66.2218 26.229 78.3339 42.795 76.0968C59.361 73.8596 72.83 58.1226 72.8567 40.9496L12.8568 49.0489Z" fill="#053AE7"/>
</g>
<defs>
<clipPath id="clip0_4060_247">
<rect width="307" height="90" fill="white"/>
</clipPath>
</defs>
</svg>
