<svg width="728" height="448" viewBox="0 0 728 448" fill="none" xmlns="http://www.w3.org/2000/svg">
<path d="M155.655 -81.1696L356.889 -197.352C392.208 -136.446 448.666 -95.686 511.899 -78.8552C574.853 -62.0984 643.789 -69.2566 704.566 -104.192L820.749 97.0418C704.579 163.957 572.083 177.619 452.13 145.691C331.658 113.625 223.097 35.3734 155.655 -81.1696ZM244.429 673.932L43.1955 557.75C78.282 496.709 85.3519 427.435 68.3117 364.258C51.3464 301.36 10.6793 245.239 -49.9644 210.072L66.218 8.83813C182.253 75.9868 260.333 183.9 292.659 303.746C325.124 424.111 311.637 557.253 244.429 673.932ZM857.069 456.139C786.663 456.273 723.134 484.788 676.942 531.133C630.953 577.275 602.685 640.554 602.551 710.656L370.186 710.656C370.321 576.593 424.737 455.017 512.364 367.099C600.37 278.8 722.418 223.91 857.069 223.774V456.139Z" stroke="#2A5CFF"/>
</svg>
