<svg width="288" height="90" viewBox="0 0 288 90" fill="none" xmlns="http://www.w3.org/2000/svg">
<g clip-path="url(#clip0_4060_11)">
<path d="M154.661 70.826L135.09 46.3439L153.416 24.6973H141.314L124.992 45.3065V24.6973H115.172V70.826H124.992V56.6485L128.589 52.3607L142.559 70.826H154.661Z" fill="#053AE7"/>
<path d="M177.751 71.6568C191.721 71.6568 201.887 61.698 201.887 47.7971C201.887 33.8963 191.721 23.9375 177.751 23.9375C163.85 23.9375 153.684 33.8963 153.684 47.7971C153.684 61.698 163.85 71.6568 177.751 71.6568ZM177.751 62.9428C169.245 62.9428 163.781 56.3728 163.781 47.7971C163.781 39.1523 169.245 32.6514 177.751 32.6514C186.258 32.6514 191.79 39.1523 191.79 47.7971C191.79 56.3728 186.258 62.9428 177.751 62.9428Z" fill="#053AE7"/>
<path d="M233.814 70.826C242.597 70.826 247.231 65.2933 247.231 58.3775C247.231 52.5682 243.289 47.7962 238.379 47.0355C242.736 46.1364 246.332 42.2636 246.332 36.4542C246.332 30.2991 241.837 24.6973 233.053 24.6973H208.779V70.826H233.814ZM230.91 43.1626H218.599V33.1346H230.91C234.229 33.1346 236.304 35.2786 236.304 38.1832C236.304 41.0879 234.229 43.1626 230.91 43.1626ZM231.255 62.3195H218.599V51.5999H231.255C235.128 51.5999 237.203 54.0896 237.203 56.9943C237.203 60.3139 234.99 62.3195 231.255 62.3195Z" fill="#053AE7"/>
<path d="M287.28 70.826V62.1812H264.457V51.7383H286.796V43.0935H264.457V33.3421H287.28V24.6973H254.637V70.826H287.28Z" fill="#053AE7"/>
<path d="M87.4121 23.5783V12.4601H49.361V0H37.1885V12.4601H0V23.5783H37.2843V33.6422H9.00958V78.4026H20.5112V44.7604H37.2843V90H49.1693V44.7604H67.476V65.8466C67.476 66.901 66.9968 67.3802 65.4633 67.3802C63.9297 67.3802 58.2748 67.3802 53.4824 67.1885C55.1118 70.2556 56.8371 75.1438 57.3163 78.4026C64.7923 78.4026 70.2556 78.2109 74.2812 76.4856C78.2109 74.7604 79.361 71.5016 79.361 66.0383V33.6422H49.1693V23.5783H87.4121Z" fill="#053AE7"/>
</g>
<defs>
<clipPath id="clip0_4060_11">
<rect width="288" height="90" fill="white"/>
</clipPath>
</defs>
</svg>
