<svg width="414" height="90" viewBox="0 0 414 90" fill="none" xmlns="http://www.w3.org/2000/svg">
<g clip-path="url(#clip0_4060_32)">
<path d="M402.615 89.9988C399.277 89.9988 396.533 89.0346 394.383 87.1063C392.306 85.1039 391.268 82.6564 391.268 79.7639C391.268 76.7973 392.306 74.3128 394.383 72.3103C396.533 70.3078 399.277 69.3066 402.615 69.3066C405.878 69.3066 408.548 70.3078 410.625 72.3103C412.776 74.3128 413.851 76.7973 413.851 79.7639C413.851 82.6564 412.776 85.1039 410.625 87.1063C408.548 89.0346 405.878 89.9988 402.615 89.9988Z" fill="#053AE7"/>
<path d="M314.426 57.9614C314.426 51.5832 315.613 45.9837 317.986 41.163C320.434 36.3422 323.734 32.6339 327.887 30.0381C332.041 27.4423 336.676 26.1445 341.793 26.1445C346.169 26.1445 349.989 27.0344 353.252 28.8144C356.589 30.5944 359.148 32.9306 360.928 35.823V27.0344H379.951V89.1109H360.928V80.3223C359.074 83.2147 356.478 85.551 353.141 87.3309C349.877 89.1109 346.058 90.0009 341.682 90.0009C336.639 90.0009 332.041 88.703 327.887 86.1072C323.734 83.4372 320.434 79.6919 317.986 74.8711C315.613 69.9762 314.426 64.3396 314.426 57.9614ZM360.928 58.0727C360.928 53.3261 359.593 49.5807 356.923 46.8366C354.327 44.0925 351.138 42.7204 347.356 42.7204C343.573 42.7204 340.347 44.0925 337.677 46.8366C335.081 49.5066 333.783 53.2148 333.783 57.9614C333.783 62.708 335.081 66.4904 337.677 69.3087C340.347 72.0528 343.573 73.4249 347.356 73.4249C351.138 73.4249 354.327 72.0528 356.923 69.3087C359.593 66.5646 360.928 62.8192 360.928 58.0727Z" fill="#053AE7"/>
<path d="M304.422 6.78516V89.1088H285.398V6.78516H304.422Z" fill="#053AE7"/>
<path d="M262.158 20.5809C258.82 20.5809 256.076 19.6168 253.926 17.6885C251.849 15.686 250.811 13.2385 250.811 10.3461C250.811 7.37946 251.849 4.932 253.926 3.0037C256.076 1.00123 258.82 0 262.158 0C265.421 0 268.091 1.00123 270.168 3.0037C272.319 4.932 273.394 7.37946 273.394 10.3461C273.394 13.2385 272.319 15.686 270.168 17.6885C268.091 19.6168 265.421 20.5809 262.158 20.5809ZM271.614 27.0333V89.1097H252.591V27.0333H271.614Z" fill="#053AE7"/>
<path d="M215.452 26.3652C222.72 26.3652 228.505 28.7385 232.807 33.4851C237.182 38.1575 239.37 44.6099 239.37 52.8423V89.1092H220.458V55.401C220.458 51.2477 219.383 48.0215 217.232 45.7224C215.081 43.4233 212.189 42.2737 208.554 42.2737C204.92 42.2737 202.028 43.4233 199.877 45.7224C197.726 48.0215 196.651 51.2477 196.651 55.401V89.1092H177.627V27.0327H196.651V35.2651C198.579 32.521 201.175 30.3702 204.438 28.8127C207.702 27.181 211.373 26.3652 215.452 26.3652Z" fill="#053AE7"/>
<path d="M98.3398 57.9614C98.3398 51.5832 99.5265 45.9837 101.9 41.163C104.347 36.3422 107.648 32.6339 111.801 30.0381C115.954 27.4423 120.589 26.1445 125.707 26.1445C130.083 26.1445 133.902 27.0344 137.165 28.8144C140.503 30.5944 143.062 32.9306 144.842 35.823V27.0344H163.865V89.1109H144.842V80.3223C142.987 83.2147 140.392 85.551 137.054 87.3309C133.791 89.1109 129.971 90.0009 125.596 90.0009C120.552 90.0009 115.954 88.703 111.801 86.1072C107.648 83.4372 104.347 79.6919 101.9 74.8711C99.5265 69.9762 98.3398 64.3396 98.3398 57.9614ZM144.842 58.0727C144.842 53.3261 143.507 49.5807 140.837 46.8366C138.241 44.0925 135.052 42.7204 131.269 42.7204C127.487 42.7204 124.261 44.0925 121.591 46.8366C118.995 49.5066 117.697 53.2148 117.697 57.9614C117.697 62.708 118.995 66.4904 121.591 69.3087C124.261 72.0528 127.487 73.4249 131.269 73.4249C135.052 73.4249 138.241 72.0528 140.837 69.3087C143.507 66.5646 144.842 62.8192 144.842 58.0727Z" fill="#053AE7"/>
<path d="M88.4423 11.0117V89.1079H69.4188V42.2724L51.9529 89.1079H36.6006L19.0234 42.1612V89.1079H0V11.0117H22.4721L44.388 65.0783L66.0814 11.0117H88.4423Z" fill="#053AE7"/>
</g>
<defs>
<clipPath id="clip0_4060_32">
<rect width="414" height="90" fill="white"/>
</clipPath>
</defs>
</svg>
