<svg width="214" height="37" viewBox="0 0 214 37" fill="none" xmlns="http://www.w3.org/2000/svg">
<path d="M207.457 27.7876C206.529 27.7876 205.697 27.6356 204.961 27.3316C204.241 27.0116 203.625 26.5716 203.113 26.0116C202.617 25.4356 202.233 24.7476 201.961 23.9476C201.689 23.1316 201.553 22.2196 201.553 21.2116C201.553 20.2196 201.681 19.3236 201.937 18.5236C202.209 17.7236 202.593 17.0436 203.089 16.4836C203.585 15.9076 204.193 15.4676 204.913 15.1636C205.633 14.8436 206.449 14.6836 207.361 14.6836C208.337 14.6836 209.185 14.8516 209.905 15.1876C210.625 15.5236 211.217 15.9796 211.681 16.5556C212.145 17.1316 212.489 17.8036 212.713 18.5716C212.953 19.3236 213.073 20.1316 213.073 20.9956V22.0036H204.745V22.3156C204.745 23.2276 205.001 23.9636 205.513 24.5236C206.025 25.0676 206.785 25.3396 207.793 25.3396C208.561 25.3396 209.185 25.1796 209.665 24.8596C210.161 24.5396 210.601 24.1316 210.985 23.6356L212.641 25.4836C212.129 26.2036 211.425 26.7716 210.529 27.1876C209.649 27.5876 208.625 27.7876 207.457 27.7876ZM207.409 16.9876C206.593 16.9876 205.945 17.2596 205.465 17.8036C204.985 18.3476 204.745 19.0516 204.745 19.9156V20.1076H209.881V19.8916C209.881 19.0276 209.665 18.3316 209.233 17.8036C208.817 17.2596 208.209 16.9876 207.409 16.9876Z" fill="#1A242B"/>
<path d="M198.141 27.4991C197.085 27.4991 196.277 27.2271 195.717 26.6831C195.173 26.1231 194.901 25.3311 194.901 24.3071V17.4191H193.053V14.9711H194.013C194.477 14.9711 194.789 14.8671 194.949 14.6591C195.125 14.4351 195.213 14.1071 195.213 13.6751V11.5391H197.973V14.9711H200.541V17.4191H197.973V25.0511H200.349V27.4991H198.141Z" fill="#1A242B"/>
<path d="M189.853 13.1477C189.213 13.1477 188.749 13.0037 188.461 12.7157C188.189 12.4277 188.053 12.0597 188.053 11.6117V11.1317C188.053 10.6837 188.189 10.3157 188.461 10.0277C188.749 9.7397 189.213 9.5957 189.853 9.5957C190.477 9.5957 190.933 9.7397 191.221 10.0277C191.509 10.3157 191.653 10.6837 191.653 11.1317V11.6117C191.653 12.0597 191.509 12.4277 191.221 12.7157C190.933 13.0037 190.477 13.1477 189.853 13.1477ZM188.317 14.9717H191.389V27.4997H188.317V14.9717Z" fill="#1A242B"/>
<path d="M176.713 27.5V10.748H179.881V24.692H186.481V27.5H176.713Z" fill="#1A242B"/>
<path d="M172.336 14.9727H175.216L170.176 29.7327C170.016 30.1807 169.832 30.5647 169.624 30.8847C169.432 31.2207 169.2 31.4927 168.928 31.7007C168.656 31.9087 168.328 32.0607 167.944 32.1567C167.56 32.2527 167.112 32.3007 166.6 32.3007H164.752V29.8527H167.008L167.584 28.1007L163.096 14.9727H166.144L168.328 21.5967L169.144 24.7647H169.288L170.152 21.5967L172.336 14.9727Z" fill="#1A242B"/>
<path d="M157.197 27.7876C156.269 27.7876 155.437 27.6356 154.701 27.3316C153.981 27.0116 153.365 26.5716 152.853 26.0116C152.357 25.4356 151.973 24.7476 151.701 23.9476C151.429 23.1316 151.293 22.2196 151.293 21.2116C151.293 20.2196 151.421 19.3236 151.677 18.5236C151.949 17.7236 152.333 17.0436 152.829 16.4836C153.325 15.9076 153.933 15.4676 154.653 15.1636C155.373 14.8436 156.189 14.6836 157.101 14.6836C158.077 14.6836 158.925 14.8516 159.645 15.1876C160.365 15.5236 160.957 15.9796 161.421 16.5556C161.885 17.1316 162.229 17.8036 162.453 18.5716C162.693 19.3236 162.813 20.1316 162.813 20.9956V22.0036H154.485V22.3156C154.485 23.2276 154.741 23.9636 155.253 24.5236C155.765 25.0676 156.525 25.3396 157.533 25.3396C158.301 25.3396 158.925 25.1796 159.405 24.8596C159.901 24.5396 160.341 24.1316 160.725 23.6356L162.381 25.4836C161.869 26.2036 161.165 26.7716 160.269 27.1876C159.389 27.5876 158.365 27.7876 157.197 27.7876ZM157.149 16.9876C156.333 16.9876 155.685 17.2596 155.205 17.8036C154.725 18.3476 154.485 19.0516 154.485 19.9156V20.1076H159.621V19.8916C159.621 19.0276 159.405 18.3316 158.973 17.8036C158.557 17.2596 157.949 16.9876 157.149 16.9876Z" fill="#1A242B"/>
<path d="M148.871 27.5002C147.815 27.5002 147.039 27.2362 146.543 26.7082C146.047 26.1802 145.799 25.4362 145.799 24.4762V9.74023H148.871V25.0522H150.527V27.5002H148.871Z" fill="#1A242B"/>
<path d="M139.904 25.4122H139.784C139.56 26.1322 139.136 26.7082 138.512 27.1402C137.888 27.5722 137.16 27.7882 136.328 27.7882C134.744 27.7882 133.528 27.2202 132.68 26.0842C131.848 24.9482 131.432 23.3242 131.432 21.2122C131.432 19.1162 131.848 17.5082 132.68 16.3882C133.528 15.2522 134.744 14.6842 136.328 14.6842C137.16 14.6842 137.888 14.9002 138.512 15.3322C139.136 15.7482 139.56 16.3162 139.784 17.0362H139.904V9.74023H142.976V27.5002H139.904V25.4122ZM137.312 25.2442C138.048 25.2442 138.664 25.0682 139.16 24.7162C139.656 24.3642 139.904 23.8602 139.904 23.2042V19.2202C139.904 18.6122 139.656 18.1242 139.16 17.7562C138.664 17.3882 138.048 17.2042 137.312 17.2042C136.512 17.2042 135.864 17.4762 135.368 18.0202C134.888 18.5482 134.648 19.2602 134.648 20.1562V22.3162C134.648 23.2122 134.888 23.9242 135.368 24.4522C135.864 24.9802 136.512 25.2442 137.312 25.2442Z" fill="#1A242B"/>
<path d="M124.529 27.7876C123.601 27.7876 122.769 27.6356 122.033 27.3316C121.313 27.0116 120.697 26.5716 120.185 26.0116C119.689 25.4356 119.305 24.7476 119.033 23.9476C118.761 23.1316 118.625 22.2196 118.625 21.2116C118.625 20.2196 118.753 19.3236 119.009 18.5236C119.281 17.7236 119.665 17.0436 120.161 16.4836C120.657 15.9076 121.265 15.4676 121.985 15.1636C122.705 14.8436 123.521 14.6836 124.433 14.6836C125.409 14.6836 126.257 14.8516 126.977 15.1876C127.697 15.5236 128.289 15.9796 128.753 16.5556C129.217 17.1316 129.561 17.8036 129.785 18.5716C130.025 19.3236 130.145 20.1316 130.145 20.9956V22.0036H121.817V22.3156C121.817 23.2276 122.073 23.9636 122.585 24.5236C123.097 25.0676 123.857 25.3396 124.865 25.3396C125.633 25.3396 126.257 25.1796 126.737 24.8596C127.233 24.5396 127.673 24.1316 128.057 23.6356L129.713 25.4836C129.201 26.2036 128.497 26.7716 127.601 27.1876C126.721 27.5876 125.697 27.7876 124.529 27.7876ZM124.481 16.9876C123.665 16.9876 123.017 17.2596 122.537 17.8036C122.057 18.3476 121.817 19.0516 121.817 19.9156V20.1076H126.953V19.8916C126.953 19.0276 126.737 18.3316 126.305 17.8036C125.889 17.2596 125.281 16.9876 124.481 16.9876Z" fill="#1A242B"/>
<path d="M113.431 15.476H113.335L112.039 18.14L108.607 24.476L105.175 18.14L103.879 15.476H103.783V27.5H100.783V10.748H104.359L108.655 18.932H108.751L112.999 10.748H116.431V27.5H113.431V15.476Z" fill="#1A242B"/>
<path fill-rule="evenodd" clip-rule="evenodd" d="M66.8441 17.2797C61.6469 17.2797 56.9567 19.3804 53.5484 22.8C50.1552 26.2045 48.0726 30.8764 48.0726 36.0512H30.8612C30.8612 29.1759 32.7949 22.7443 36.1413 17.2799C30.9775 17.3023 26.3193 19.3988 22.9294 22.8C19.5362 26.2045 17.4536 30.8764 17.4535 36.0512L0.242188 36.0512C0.242188 26.1389 4.26159 17.1488 10.739 10.6499C17.2444 4.12289 26.2694 0.0683729 36.2251 0.0683733V17.1439C37.6856 14.7825 39.4108 12.6036 41.358 10.6499C47.8634 4.12288 56.8884 0.0683594 66.8441 0.0683594V17.2797ZM85.4109 36.0509V17.3104H66.8441V36.0509H85.4109Z" fill="#053AE7"/>
</svg>
